<svg xmlns="http://www.w3.org/2000/svg" viewBox="0 0 256 256">
  <defs>
    <linearGradient id="g" x1="0" y1="0" x2="1" y2="1">
      <stop offset="0" stop-color="#0ea5e9"/>
      <stop offset="1" stop-color="#1e40af"/>
    </linearGradient>
  </defs>
  <circle cx="128" cy="128" r="116" fill="url(#g)"/>
  <path d="M36 150c18 14 34 22 54 22 22 0 32-10 52-10 24 0 34 12 56 12 10 0 20-2 30-6v34c-12 6-26 10-42 10-22 0-32-10-52-10-24 0-34 12-56 12-26 0-48-10-68-26z" fill="#ffffff" opacity="0.85"/>
  <path d="M44 122c18 12 34 18 50 18 22 0 32-10 52-10 24 0 34 12 56 12 14 0 26-4 38-10v24c-12 6-26 10-42 10-22 0-32-10-52-10-24 0-34 12-56 12-24 0-44-8-64-22z" fill="#ffffff" opacity="0.65"/>
</svg>
